/* XPM */
static char * taskgnome32_xpm[] = {
"32 32 916 2",
"  	c None",
". 	c #FFFB57",
"+ 	c #C3F89B",
"@ 	c #FFFF60",
"# 	c #F6F16B",
"$ 	c #FAFE6C",
"% 	c #FFFD68",
"& 	c #FEFD6D",
"* 	c #F7FB85",
"= 	c #E0FAB5",
"- 	c #A8F6F7",
"; 	c #9DF4FE",
"> 	c #9DF3FF",
", 	c #9DF2FF",
"' 	c #9AF1FF",
") 	c #97F0FF",
"! 	c #9AF3FF",
"~ 	c #A2F6FE",
"{ 	c #A9F6FC",
"] 	c #AFF2F7",
"^ 	c #C5D6D4",
"/ 	c #D1CCC5",
"( 	c #B4C7C5",
"_ 	c #A7C2C1",
": 	c #B1E2E4",
"< 	c #A9F9FF",
"[ 	c #A2F6FA",
"} 	c #FFFF5D",
"| 	c #FEFB50",
"1 	c #CAEB7E",
"2 	c #F4EE5E",
"3 	c #F3DA58",
"4 	c #F5F058",
"5 	c #EFF159",
"6 	c #F0ED5D",
"7 	c #E4EC75",
"8 	c #C5E8AC",
"9 	c #9CE2EA",
"0 	c #99E0F0",
"a 	c #98DEF1",
"b 	c #94DFF2",
"c 	c #8BDEF2",
"d 	c #89DFF3",
"e 	c #90E2F0",
"f 	c #AAC7CB",
"g 	c #A8786D",
"h 	c #803D30",
"i 	c #7F2F24",
"j 	c #A03C2D",
"k 	c #AC4431",
"l 	c #924231",
"m 	c #867266",
"n 	c #8FC2B9",
"o 	c #7BC995",
"p 	c #FEFF71",
"q 	c #EDF657",
"r 	c #DAE95B",
"s 	c #D3E65E",
"t 	c #D3E768",
"u 	c #DEE859",
"v 	c #EDF459",
"w 	c #E9A149",
"x 	c #E7EF6A",
"y 	c #D7EA8C",
"z 	c #C1E8B3",
"A 	c #A7E3E3",
"B 	c #9DE0F1",
"C 	c #9DE1F0",
"D 	c #97E2F1",
"E 	c #92DFF1",
"F 	c #91D6E4",
"G 	c #B39A95",
"H 	c #714036",
"I 	c #A63F30",
"J 	c #DD5543",
"K 	c #D75340",
"L 	c #D55240",
"M 	c #D65240",
"N 	c #DE5742",
"O 	c #8A4731",
"P 	c #708C57",
"Q 	c #76BB75",
"R 	c #F9FF89",
"S 	c #D9F36C",
"T 	c #B4DC60",
"U 	c #A4D55F",
"V 	c #9BD164",
"W 	c #9DCB53",
"X 	c #C3D44D",
"Y 	c #D7B745",
"Z 	c #E5E35D",
"` 	c #DFEA78",
" .	c #D3E995",
"..	c #B9E6BF",
"+.	c #A3E2E6",
"@.	c #9AE0F2",
"#.	c #9BE0F0",
"$.	c #9AE0F0",
"%.	c #95DFF1",
"&.	c #8FDFF1",
"*.	c #AEA4A2",
"=.	c #6E2C21",
"-.	c #DA5442",
";.	c #DA5441",
">.	c #823628",
",.	c #799B60",
"'.	c #73BA6D",
").	c #D0F78D",
"!.	c #9AD368",
"~.	c #7DC359",
"{.	c #7AC256",
"].	c #7FC34D",
"^.	c #93CA51",
"/.	c #AFD447",
"(.	c #C6E754",
"_.	c #CDE462",
":.	c #D5E87E",
"<.	c #D0E995",
"[.	c #AFE4CA",
"}.	c #92DFED",
"|.	c #8FDDF3",
"1.	c #8EDFF3",
"2.	c #91DFF2",
"3.	c #94E0F1",
"4.	c #B0B9BD",
"5.	c #6C2F24",
"6.	c #DB5542",
"7.	c #683224",
"8.	c #89AD5D",
"9.	c #9FE185",
"0.	c #77C157",
"a.	c #77C04D",
"b.	c #90C547",
"c.	c #80C551",
"d.	c #8FCF4E",
"e.	c #94D444",
"f.	c #9AD34B",
"g.	c #BCDF65",
"h.	c #C1E59D",
"i.	c #B1E5BF",
"j.	c #8CDFEE",
"k.	c #89DEF2",
"l.	c #8CDEF2",
"m.	c #91E0F3",
"n.	c #96E1F4",
"o.	c #9FD4E4",
"p.	c #81544C",
"q.	c #D0503F",
"r.	c #D4523F",
"s.	c #DF5740",
"t.	c #D7533F",
"u.	c #B64637",
"v.	c #795634",
"w.	c #86D36E",
"x.	c #73BE4D",
"y.	c #A0C943",
"z.	c #8FC94F",
"A.	c #81C756",
"B.	c #7FCB48",
"C.	c #7DC946",
"D.	c #9BD250",
"E.	c #B9E37C",
"F.	c #A4E2C0",
"G.	c #97E2E6",
"H.	c #91E1F2",
"I.	c #90E0F3",
"J.	c #94E1F3",
"K.	c #97E0F4",
"L.	c #9FE3F4",
"M.	c #B6B8B9",
"N.	c #883225",
"O.	c #6F3622",
"P.	c #7E682F",
"Q.	c #684921",
"R.	c #D25731",
"S.	c #DC5542",
"T.	c #743124",
"U.	c #78CC5F",
"V.	c #9EC843",
"W.	c #99CA4B",
"X.	c #83CA5A",
"Y.	c #77C14A",
"Z.	c #77C844",
"`.	c #84CC4B",
" +	c #A8DD58",
".+	c #BBE67A",
"++	c #9AE3DC",
"@+	c #95E3F2",
"#+	c #98E2F3",
"$+	c #9BE1F4",
"%+	c #9CE0F3",
"&+	c #A1E2F4",
"*+	c #A9E5F3",
"=+	c #877C79",
"-+	c #CA4D3C",
";+	c #D75341",
">+	c #7B3826",
",+	c #A2A64D",
"'+	c #82C953",
")+	c #98CD53",
"!+	c #6B461D",
"~+	c #7A3125",
"{+	c #95D455",
"]+	c #9ACB4B",
"^+	c #87CE60",
"/+	c #73BF51",
"(+	c #75C645",
"_+	c #7AC848",
":+	c #99D750",
"<+	c #ACDD55",
"[+	c #B3E07B",
"}+	c #9FE3D7",
"|+	c #9CE2F3",
"1+	c #9FE0F2",
"2+	c #A2E0F2",
"3+	c #A3E1F3",
"4+	c #A4E2F2",
"5+	c #B7D1D7",
"6+	c #774339",
"7+	c #DC5543",
"8+	c #DA5341",
"9+	c #685F35",
"0+	c #84C867",
"a+	c #73C158",
"b+	c #82C751",
"c+	c #849734",
"d+	c #B04333",
"e+	c #853528",
"f+	c #98D85A",
"g+	c #85CD5F",
"h+	c #74CA67",
"i+	c #71C146",
"j+	c #76C547",
"k+	c #8ECE4D",
"l+	c #9BD74F",
"m+	c #A3D348",
"n+	c #ADDD89",
"o+	c #A0DFDE",
"p+	c #A0DFF1",
"q+	c #9EDEF2",
"r+	c #A1DFF1",
"s+	c #B2DAE7",
"t+	c #ACB7BA",
"u+	c #8C716B",
"v+	c #A23E30",
"w+	c #CB503B",
"x+	c #766E3B",
"y+	c #81C566",
"z+	c #74BE63",
"A+	c #72BA53",
"B+	c #9DC74C",
"C+	c #793723",
"D+	c #D85341",
"E+	c #8B372A",
"F+	c #85D96E",
"G+	c #72D077",
"H+	c #6DC154",
"I+	c #70C04A",
"J+	c #8FC946",
"K+	c #99D24C",
"L+	c #8ACD41",
"M+	c #A1D448",
"N+	c #A0D99C",
"O+	c #98DBEC",
"P+	c #9CDDEC",
"Q+	c #89B3BE",
"R+	c #70635E",
"S+	c #827A75",
"T+	c #A49F97",
"U+	c #7F6660",
"V+	c #CF6555",
"W+	c #DD5941",
"X+	c #613D22",
"Y+	c #A6AD57",
"Z+	c #78B45B",
"`+	c #69B15B",
" @	c #89B952",
".@	c #803D20",
"+@	c #DE553E",
"@@	c #953C2A",
"#@	c #73DC7E",
"$@	c #68CD78",
"%@	c #6BBC4B",
"&@	c #8CC647",
"*@	c #9FCD47",
"=@	c #83CB42",
"-@	c #8FCE42",
";@	c #94D256",
">@	c #97D7AD",
",@	c #9ADBD8",
"'@	c #A9DEDA",
")@	c #574743",
"!@	c #F5E6DB",
"~@	c #EAE6DC",
"{@	c #E9E5DA",
"]@	c #EFEFE6",
"^@	c #6F6965",
"/@	c #CE8578",
"(@	c #D95A47",
"_@	c #C9503B",
":@	c #774121",
"<@	c #90A949",
"[@	c #6CA860",
"}@	c #A58A52",
"|@	c #6F4B3A",
"1@	c #EB7D60",
"2@	c #9C4B33",
"3@	c #6FDD85",
"4@	c #69C462",
"5@	c #7AC351",
"6@	c #A5CB42",
"7@	c #85CB44",
"8@	c #89CC42",
"9@	c #87CD45",
"0@	c #91D370",
"a@	c #99D28D",
"b@	c #9AD7AB",
"c@	c #99DAC2",
"d@	c #674C3E",
"e@	c #F0EADF",
"f@	c #E7D8CA",
"g@	c #E9E8DB",
"h@	c #EAECE4",
"i@	c #ECEEE6",
"j@	c #999A95",
"k@	c #7F574F",
"l@	c #B95B4C",
"m@	c #DE5A47",
"n@	c #D5513F",
"o@	c #C45442",
"p@	c #8D5D33",
"q@	c #9E8051",
"r@	c #716E67",
"s@	c #D9D6CA",
"t@	c #8A8C83",
"u@	c #58544B",
"v@	c #6EDE87",
"w@	c #67BF5A",
"x@	c #9DCA47",
"y@	c #8FCA47",
"z@	c #87CB41",
"A@	c #84CC43",
"B@	c #82CC4D",
"C@	c #8AC962",
"D@	c #8DC36A",
"E@	c #87C489",
"F@	c #88C37C",
"G@	c #796B45",
"H@	c #BDA99F",
"I@	c #ECEBDD",
"J@	c #E7E5DB",
"K@	c #EAE6DE",
"L@	c #EEE8E0",
"M@	c #EEEAE1",
"N@	c #F2EBE1",
"O@	c #A8A59F",
"P@	c #81726C",
"Q@	c #84584B",
"R@	c #844236",
"S@	c #884133",
"T@	c #815448",
"U@	c #725B51",
"V@	c #A29D90",
"W@	c #6A6357",
"X@	c #F4F5E9",
"Y@	c #E8EADF",
"Z@	c #EAECDF",
"`@	c #88857A",
" #	c #6FD97A",
".#	c #7CC95D",
"+#	c #94CC4F",
"@#	c #86CA43",
"##	c #86CB44",
"$#	c #7FD149",
"%#	c #7BC958",
"&#	c #79B95F",
"*#	c #7CB563",
"=#	c #9BCB65",
"-#	c #9ECB4B",
";#	c #96CA61",
">#	c #61582D",
",#	c #7A544B",
"'#	c #C6B7B0",
")#	c #F7F1E7",
"!#	c #EFECE4",
"~#	c #EFEBE3",
"{#	c #EFEBE2",
"]#	c #F1EDE4",
"^#	c #EAE9DE",
"/#	c #E9E9DA",
"(#	c #E4E1D3",
"_#	c #EDEADB",
":#	c #EDEEE0",
"<#	c #ECEEE0",
"[#	c #35342F",
"}#	c #EAE5D6",
"|#	c #EFF1E4",
"1#	c #C9C5BB",
"2#	c #505A42",
"3#	c #6EDA7C",
"4#	c #8ACD5E",
"5#	c #85C84C",
"6#	c #87C849",
"7#	c #5FA238",
"8#	c #6B5948",
"9#	c #86675A",
"0#	c #50593C",
"a#	c #82AB44",
"b#	c #9ECC4C",
"c#	c #80C945",
"d#	c #82CA58",
"e#	c #739A3A",
"f#	c #C36C5F",
"g#	c #874034",
"h#	c #66504A",
"i#	c #8B7D78",
"j#	c #E6DCD4",
"k#	c #F7F1E8",
"l#	c #EFECE2",
"m#	c #EEEAE3",
"n#	c #ECE9E0",
"o#	c #E4E5D9",
"p#	c #E7EBDD",
"q#	c #E8EADB",
"r#	c #E8E9DC",
"s#	c #F3F4E6",
"t#	c #79755F",
"u#	c #5D5733",
"v#	c #858763",
"w#	c #718553",
"x#	c #7AB562",
"y#	c #75DD7F",
"z#	c #7EC24D",
"A#	c #7ACE49",
"B#	c #74614D",
"C#	c #F8A2A5",
"D#	c #EA8B8B",
"E#	c #FFA2A4",
"F#	c #976366",
"G#	c #52862F",
"H#	c #7ACA4B",
"I#	c #7CBB47",
"J#	c #796D47",
"K#	c #7F6556",
"L#	c #BF7A78",
"M#	c #D8725C",
"N#	c #D8786B",
"O#	c #7E473B",
"P#	c #644D45",
"Q#	c #8F8883",
"R#	c #9E9B96",
"S#	c #D2CBC3",
"T#	c #EFE8DF",
"U#	c #EFECDF",
"V#	c #EFEADD",
"W#	c #F2EBDC",
"X#	c #B0ACA3",
"Y#	c #848D57",
"Z#	c #7FC153",
"`#	c #83C34F",
" $	c #9BDA67",
".$	c #8BC359",
"+$	c #72DC81",
"@$	c #73BC50",
"#$	c #76C549",
"$$	c #73C24E",
"%$	c #8E615F",
"&$	c #EB8D8E",
"*$	c #BD6B61",
"=$	c #885C4E",
"-$	c #A17466",
";$	c #7B574A",
">$	c #8D7353",
",$	c #A27E60",
"'$	c #DDB886",
")$	c #AB8266",
"!$	c #533E3B",
"~$	c #CF8E8E",
"{$	c #E6A1A3",
"]$	c #95615E",
"^$	c #967562",
"/$	c #AC7465",
"($	c #B97163",
"_$	c #B0675E",
":$	c #745044",
"<$	c #5E4034",
"[$	c #6A5341",
"}$	c #786D51",
"|$	c #919750",
"1$	c #83C555",
"2$	c #83C64E",
"3$	c #88CC53",
"4$	c #AADE60",
"5$	c #94CC5D",
"6$	c #71D06A",
"7$	c #74C04B",
"8$	c #77C14D",
"9$	c #85CF51",
"0$	c #8A635B",
"a$	c #E99090",
"b$	c #8B6A54",
"c$	c #F6C894",
"d$	c #D8B58F",
"e$	c #C8AA8C",
"f$	c #D1B08E",
"g$	c #E3BC90",
"h$	c #F1C797",
"i$	c #D3A97E",
"j$	c #BA807B",
"k$	c #FCACB0",
"l$	c #F3ABB3",
"m$	c #F1A3A9",
"n$	c #B89688",
"o$	c #F1979C",
"p$	c #F39FA4",
"q$	c #F6A1A8",
"r$	c #7F664A",
"s$	c #404620",
"t$	c #8FAF4F",
"u$	c #8FBF4C",
"v$	c #85C54A",
"w$	c #72BF4E",
"x$	c #71BD4D",
"y$	c #8ACC53",
"z$	c #A4DB58",
"A$	c #99CD5A",
"B$	c #76CC5B",
"C$	c #78C14A",
"D$	c #7FC449",
"E$	c #80C854",
"F$	c #486334",
"G$	c #DE9593",
"H$	c #9A7157",
"I$	c #F2C694",
"J$	c #E6BE91",
"K$	c #CEAE8D",
"L$	c #CBAB8C",
"M$	c #D1AF8D",
"N$	c #E9C295",
"O$	c #D2AA81",
"P$	c #6E4E48",
"Q$	c #7E5D61",
"R$	c #CA8F96",
"S$	c #ED9597",
"T$	c #E4968D",
"U$	c #E46D54",
"V$	c #EA8F8F",
"W$	c #F29CA1",
"X$	c #66433C",
"Y$	c #5A9939",
"Z$	c #72BA55",
"`$	c #82BF4E",
" %	c #7FC34B",
".%	c #6FBD4F",
"+%	c #73BF4F",
"@%	c #6FBD4D",
"#%	c #84CB53",
"$%	c #97CD54",
"%%	c #77CC55",
"&%	c #7CC14A",
"*%	c #81C54E",
"=%	c #73BD51",
"-%	c #70BE52",
";%	c #437029",
">%	c #77513C",
",%	c #B5936E",
"'%	c #E8BF90",
")%	c #D6B28D",
"!%	c #C8A98A",
"~%	c #C3A688",
"{%	c #CCAF8F",
"]%	c #6B5748",
"^%	c #EAADAF",
"/%	c #FFB6BA",
"(%	c #543939",
"_%	c #B0797E",
":%	c #F9A4AA",
"<%	c #E4603A",
"[%	c #F1A0A2",
"}%	c #B97F7E",
"|%	c #3C5A23",
"1%	c #7ACE44",
"2%	c #75C24B",
"3%	c #7CC14C",
"4%	c #78C14B",
"5%	c #6CBD4D",
"6%	c #79C550",
"7%	c #81C851",
"8%	c #78C350",
"9%	c #73B64A",
"0%	c #76CB5A",
"a%	c #7BC14D",
"b%	c #78C04F",
"c%	c #72C047",
"d%	c #78C944",
"e%	c #82D14B",
"f%	c #85795C",
"g%	c #F1B0B4",
"h%	c #766255",
"i%	c #DBB98E",
"j%	c #D7B68C",
"k%	c #CCAE8A",
"l%	c #CAAE8D",
"m%	c #735B52",
"n%	c #F8B4B6",
"o%	c #FDABAD",
"p%	c #634141",
"q%	c #2F438E",
"r%	c #472E40",
"s%	c #6A3420",
"t%	c #745D5C",
"u%	c #2F3941",
"v%	c #89CB46",
"w%	c #81C844",
"x%	c #77C745",
"y%	c #78C546",
"z%	c #75C449",
"A%	c #71C148",
"B%	c #77C54E",
"C%	c #93D456",
"D%	c #76BC49",
"E%	c #74CC5B",
"F%	c #75C250",
"G%	c #74C448",
"H%	c #75C646",
"I%	c #7EC948",
"J%	c #9ED576",
"K%	c #797E5F",
"L%	c #F6B3B7",
"M%	c #95726C",
"N%	c #A48F78",
"O%	c #B7A18A",
"P%	c #CAAE8E",
"Q%	c #D8B893",
"R%	c #776156",
"S%	c #FFB8BB",
"T%	c #FFB6B8",
"U%	c #221718",
"V%	c #5E73C0",
"W%	c #8E9CC6",
"X%	c #8F9CC7",
"Y%	c #485166",
"Z%	c #414C6B",
"`%	c #7FA047",
" &	c #98C948",
".&	c #72B559",
"+&	c #75C04C",
"@&	c #77C447",
"#&	c #72C248",
"$&	c #76C44E",
"%&	c #80CD59",
"&&	c #93D965",
"*&	c #73CA5A",
"=&	c #6CBF4F",
"-&	c #70C14A",
";&	c #7DAC62",
">&	c #9D9C9A",
",&	c #746E70",
"'&	c #817F7F",
")&	c #B9A2A1",
"!&	c #A37B78",
"~&	c #968065",
"{&	c #C9AD8D",
"]&	c #CBAE8E",
"^&	c #C8AD8A",
"/&	c #624C47",
"(&	c #956D62",
"_&	c #666663",
":&	c #84807B",
"<&	c #413A3A",
"[&	c #474040",
"}&	c #939696",
"|&	c #3D4C6A",
"1&	c #515C56",
"2&	c #8DCD51",
"3&	c #73BB56",
"4&	c #71BA55",
"5&	c #7EC550",
"6&	c #7FC54B",
"7&	c #72C04C",
"8&	c #81CA53",
"9&	c #82CF5D",
"0&	c #73C050",
"a&	c #77CA58",
"b&	c #6FBB4D",
"c&	c #6BAB4A",
"d&	c #9C9799",
"e&	c #474242",
"f&	c #8E8C8A",
"g&	c #453F3F",
"h&	c #716F6D",
"i&	c #95867C",
"j&	c #C1A482",
"k&	c #CAAD8D",
"l&	c #C7AB8D",
"m&	c #C5AB8F",
"n&	c #E3C094",
"o&	c #F7CF9B",
"p&	c #C4A988",
"q&	c #8A8887",
"r&	c #5A5655",
"s&	c #8F8E8B",
"t&	c #605B5B",
"u&	c #615B59",
"v&	c #677186",
"w&	c #43485F",
"x&	c #9B9958",
"y&	c #94A05B",
"z&	c #86AB57",
"A&	c #86B95B",
"B&	c #88CE5E",
"C&	c #8BD557",
"D&	c #85D254",
"E&	c #88D160",
"F&	c #7BC364",
"G&	c #87C757",
"H&	c #93A04E",
"I&	c #9B9668",
"J&	c #6E6B6B",
"K&	c #989794",
"L&	c #474141",
"M&	c #5B5655",
"N&	c #443D3E",
"O&	c #A4A19B",
"P&	c #F0C690",
"Q&	c #DBBE98",
"R&	c #D0B28E",
"S&	c #C5AA8C",
"T&	c #EAC495",
"U&	c #B0ABA0",
"V&	c #5E5959",
"W&	c #878683",
"X&	c #908E8C",
"Y&	c #666261",
"Z&	c #524B4B",
"`&	c #7C8091",
" *	c #44495E",
".*	c #A1674C",
"+*	c #AD7352",
"@*	c #AF7253",
"#*	c #B27654",
"$*	c #B77C59",
"%*	c #AD805A",
"&*	c #B19A5F",
"**	c #9EB065",
"=*	c #80BF8F",
"-*	c #A69A55",
";*	c #BB8356",
">*	c #B79271",
",*	c #706E6D",
"'*	c #827F7E",
")*	c #433D3D",
"!*	c #91908D",
"~*	c #858484",
"{*	c #CBAC86",
"]*	c #E6C497",
"^*	c #F0C896",
"/*	c #F6CD98",
"(*	c #F4CB96",
"_*	c #E7C395",
":*	c #8B8B8A",
"<*	c #4A4545",
"[*	c #6E6A69",
"}*	c #534D4D",
"|*	c #767271",
"1*	c #595352",
"2*	c #767B8F",
"3*	c #6E514B",
"4*	c #A8694E",
"5*	c #A96E52",
"6*	c #A46850",
"7*	c #A2634D",
"8*	c #A2614A",
"9*	c #A2624A",
"0*	c #A3694C",
"a*	c #A76C4F",
"b*	c #955D44",
"c*	c #AC6B4E",
"d*	c #A86C4F",
"e*	c #A16B53",
"f*	c #888886",
"g*	c #464040",
"h*	c #706C6B",
"i*	c #635F5E",
"j*	c #656160",
"k*	c #C6B094",
"l*	c #F0C894",
"m*	c #DEB686",
"n*	c #DAB387",
"o*	c #8C725F",
"p*	c #7E6C63",
"q*	c #807E7C",
"r*	c #585353",
"s*	c #9A9996",
"t*	c #494342",
"u*	c #787575",
"v*	c #88655C",
"w*	c #9A5C4B",
"x*	c #9C5B49",
"y*	c #9B5B4A",
"z*	c #A1624E",
"A*	c #A5644E",
"B*	c #A5644B",
"C*	c #A16651",
"D*	c #9B614F",
"E*	c #8C5440",
"F*	c #995947",
"G*	c #955646",
"H*	c #A06047",
"I*	c #AEA199",
"J*	c #3F3839",
"K*	c #9C9B98",
"L*	c #686462",
"M*	c #6A6765",
"N*	c #A99D94",
"O*	c #695654",
"P*	c #4A4C61",
"Q*	c #3E4B6D",
"R*	c #3E4B6C",
"S*	c #525D7A",
"T*	c #888581",
"U*	c #5A5554",
"V*	c #625D5D",
"W*	c #726D6C",
"X*	c #A09994",
"Y*	c #975342",
"Z*	c #9A5B48",
"`*	c #9D604D",
" =	c #A76B53",
".=	c #A86E56",
"+=	c #A86E55",
"@=	c #A76C54",
"#=	c #A76950",
"$=	c #AB6B4F",
"%=	c #A05E49",
"&=	c #8C523F",
"*=	c #A0644A",
"==	c #A67253",
"-=	c #A17C65",
";=	c #7B7A79",
">=	c #726F6E",
",=	c #8F8D8B",
"'=	c #898784",
")=	c #757271",
"!=	c #7A7C87",
"~=	c #414C6C",
"{=	c #404C6D",
"]=	c #57617B",
"^=	c #797673",
"/=	c #726E6D",
"(=	c #6D6967",
"_=	c #4A4343",
":=	c #B9A193",
"<=	c #A37558",
"[=	c #A57458",
"}=	c #B6815F",
"|=	c #B37D5D",
"1=	c #AA755A",
"2=	c #A16B55",
"3=	c #9E6551",
"4=	c #9F644E",
"5=	c #985E49",
"6=	c #884D40",
"7=	c #A07556",
"8=	c #9F6E4F",
"9=	c #A69A90",
"0=	c #A2A29E",
"a=	c #969592",
"b=	c #797675",
"c=	c #8B8886",
"d=	c #745754",
"e=	c #6B5153",
"f=	c #644D50",
"g=	c #655055",
"h=	c #5F5F68",
"i=	c #817F7D",
"j=	c #A6A6A3",
"k=	c #A3A3A0",
"l=	c #6A6666",
"m=	c #A19F9C",
"n=	c #B08260",
"o=	c #A36D53",
"p=	c #9F654F",
"q=	c #9C604D",
"r=	c #9D6753",
"s=	c #9B6552",
"t=	c #996150",
"u=	c #9C644F",
"v=	c #97604A",
"w=	c #8D5B45",
"x=	c #825943",
"y=	c #825742",
"z=	c #8B8986",
"A=	c #54504F",
"B=	c #777573",
"C=	c #666361",
"D=	c #545150",
"E=	c #A47B6F",
"F=	c #8E4F40",
"G=	c #935442",
"H=	c #A28D82",
"I=	c #646160",
"J=	c #868582",
"K=	c #6C6968",
"L=	c #4C4646",
"M=	c #676564",
"N=	c #906955",
"O=	c #96644C",
"P=	c #8A5948",
"Q=	c #845648",
"R=	c #825549",
"S=	c #855648",
"T=	c #885C4B",
"U=	c #8A5A47",
"V=	c #916047",
"W=	c #926547",
"      . + @ # $ % & * = - ; > , ' ) ! ~ { ] ^ / ( _ : < [       ",
"    } | 1 2 3 4 5 6 7 8 9 0 0 a b c d e f g h i j k l m n o     ",
"  p q r s t u v w x y z A B B C D E F G H I J K L L M N O P Q   ",
"R S T U V W X Y Z `  ...+.@.#.$.%.&.*.=.-.L L L L L L L ;.>.,.'.",
").!.~.{.].^./.(._.:.<.[.}.|.1.2.3.4.5.-.L L L L L L L L L 6.7.8.",
"9.0.a.b.c.d.e.f.g.h.i.j.k.l.m.n.o.p.q.L L L L L L -.r.s.t.L u.v.",
"w.x.y.z.A.B.C.D.E.F.G.H.I.J.K.L.M.N.M L L L L L L O.P.Q.R.M S.T.",
"U.V.W.X.Y.Z.`. +.+++@+#+$+%+&+*+=+-+L L L L L ;+>+,+'+)+!+s.;+~+",
"{+]+^+/+(+_+:+<+[+}+|+1+2+3+4+5+6+7+L L L L L 8+9+0+a+b+c+d+M e+",
"f+g+h+i+j+k+l+m+n+o+p+q+r+s+t+u+v+L L L L L L w+x+y+z+A+B+C+D+E+",
"F+G+H+I+J+K+L+M+N+O+P+Q+R+S+T+U+V+L L L L L L W+X+Y+Z+`+ @.@+@@@",
"#@$@%@&@*@=@-@;@>@,@'@)@!@~@{@]@^@/@(@L L L L L _@:@<@[@}@|@1@2@",
"3@4@5@6@7@8@9@0@a@b@c@d@e@f@g@h@i@j@k@l@m@K n@n@;+o@p@q@r@s@t@u@",
"v@w@x@y@z@A@B@C@D@E@F@G@H@I@J@K@L@M@N@O@P@Q@R@S@T@U@V@W@X@Y@Z@`@",
" #.#+#@###$#%#&#*#=#-#;#>#,#'#)#!#~#{#{#]#^#/#(#_#:#<#[#}#|#1#2#",
"3#4#5#6#7#8#9#0#a#b#c#d#e#f#g#h#i#j#k#l#m#n#o#p#q#r#s#t#u#v#w#x#",
"y#.#z#A#B#C#D#E#F#G#H#I#J#K#L#M#N#O#P#Q#R#S#T#U#V#W#X#Y#Z#`# $.$",
"+$@$#$$$%$&$*$=$-$;$>$,$'$)$!$~${$]$^$/$($_$:$<$[$}$|$1$2$3$4$5$",
"6$7$8$9$0$a$b$c$d$e$f$g$h$i$j$k$l$m$n$o$p$q$r$s$t$u$v$w$x$y$z$A$",
"B$C$D$E$F$G$H$I$J$K$L$M$N$O$P$Q$R$S$T$U$V$W$X$Y$Z$`$ %.%+%@%#%$%",
"%%&%*%=%-%;%>%,%'%)%!%~%{%]%^%/%(%_%:%<%[%}%|%1%2%3%4%5%6%7%8%9%",
"0%a%b%c%d%e%f%g%h%i%j%k%l%m%n%o%p%q%r%s%t%u%v%w%x%y%z%A%B%C%C%D%",
"E%F%G%H%I%J%K%L%M%N%O%P%Q%R%S%T%U%V%W%X%Y%Z%`% &.&+&@&#&$&%&&&8$",
"*&=&-&;&>&,&'&)&!&~&P%{&]&^&/&(&_&:&<&[&}&|&1&2&3&4&5&6&7&8&9&0&",
"a&b&c&d&e&f&g&h&i&j&k&l&m&n&o&p&q&r&s&t&u&v&w&x&y&z&A&B&C&D&E&F&",
"G&H&I&J&K&L&M&N&O&P&Q&R&S&]&T&U&V&W&X&Y&Z&`& *.*+*@*#*$*%*&***=*",
"-*;*>*,*'*)*!*)*~*{*]*^*/*(*_*:*<*[*}*|*1*2*3*4*5*6*7*8*9*0*a*b*",
"c*d*e*f*g*Y&h*i*j*k*l*m*n*o*p*q*r*g*s*t*u*v*w*x*y*w*z*A*B*C*D*E*",
"F*G*H*I*J*K*L*M*L&N*O*P*Q*R*S*T*U*V*W*Y&X*Y*Z*`* =.=+=@=#=$=%=&=",
"  *===-=;=>=,='=)=!=~=~={=~=]=^=)*/=(=_=:=<=[=}=|=1=2=3=4=5=6=  ",
"    7=8=9=V&0=a=b=c=d=e=f=g=h=i=j=k=l=m=n=o=p=q=r=s=t=u=v=w=    ",
"      x=y=z=A=B=C=D=E=F=G=H=I=J=K=L=M=N=O=P=Q=R=S=T=U=V=W=      "};
