/* XPM */
static char * taskgnome16_xpm[] = {
"16 16 245 2",
"  	c None",
". 	c #FFFE54",
"+ 	c #E1F577",
"@ 	c #F6ED62",
"# 	c #F8F862",
"$ 	c #E2F395",
"% 	c #9DEBF7",
"& 	c #9BE9F8",
"* 	c #94E7F8",
"= 	c #94EDFB",
"- 	c #ACCFD1",
"; 	c #A28179",
"> 	c #A88178",
", 	c #99A29D",
"' 	c #8BDAC2",
") 	c #F4FD76",
"! 	c #C8E45C",
"~ 	c #B7DA5F",
"{ 	c #DBDA51",
"] 	c #E6D560",
"^ 	c #CAE8A4",
"/ 	c #A0E1ED",
"( 	c #9DE0F0",
"_ 	c #92E3F5",
": 	c #988F8E",
"< 	c #B14333",
"[ 	c #DB5442",
"} 	c #D85341",
"| 	c #DC5340",
"1 	c #925036",
"2 	c #75B870",
"3 	c #9FDB76",
"4 	c #7CC150",
"5 	c #87C74F",
"6 	c #A8DA49",
"7 	c #C9E477",
"8 	c #B0E5C3",
"9 	c #8CDEF2",
"0 	c #90E0F4",
"a 	c #99B4BB",
"b 	c #BB4433",
"c 	c #D55240",
"d 	c #D95341",
"e 	c #D95140",
"f 	c #DC5442",
"g 	c #845A38",
"h 	c #82C957",
"i 	c #96CB4D",
"j 	c #7AC64B",
"k 	c #90D04C",
"l 	c #ADE4A6",
"m 	c #94E2F2",
"n 	c #97E1F4",
"o 	c #A1E7F9",
"p 	c #A1685F",
"q 	c #955533",
"r 	c #7D983F",
"s 	c #BF4E32",
"t 	c #A94233",
"u 	c #96D155",
"v 	c #76C659",
"w 	c #7BC848",
"x 	c #A3D94D",
"y 	c #A8E0AF",
"z 	c #9FE1F5",
"A 	c #A6E2F4",
"B 	c #A4B9BE",
"C 	c #B24434",
"D 	c #D54F3E",
"E 	c #779C53",
"F 	c #75C258",
"G 	c #8F7534",
"H 	c #B34536",
"I 	c #74D679",
"J 	c #73BF4B",
"K 	c #95CE47",
"L 	c #93D044",
"M 	c #9ADAC9",
"N 	c #87ABB1",
"O 	c #B5A89E",
"P 	c #C2BAB1",
"Q 	c #B56357",
"R 	c #DA5341",
"S 	c #D95441",
"T 	c #8F5A32",
"U 	c #75B35A",
"V 	c #826E3A",
"W 	c #C4553D",
"X 	c #69D073",
"Y 	c #97C947",
"Z 	c #85CB42",
"` 	c #89CE59",
" .	c #92CC8B",
"..	c #7C8F6C",
"+.	c #E7DDD3",
"@.	c #EAE9DF",
"#.	c #DBDDD5",
"$.	c #AE8D84",
"%.	c #AC584B",
"&.	c #AD4435",
"*.	c #A35043",
"=.	c #8C7356",
"-.	c #CECFC7",
";.	c #96988E",
">.	c #79D26D",
",.	c #8CCC4A",
"'.	c #6FA540",
").	c #6C8D52",
"!.	c #91C355",
"~.	c #8FD053",
"{.	c #7F643C",
"].	c #A68B82",
"^.	c #D5D0C9",
"/.	c #F9F5EC",
"(.	c #F4F3EA",
"_.	c #E6EBDE",
":.	c #EEF1E2",
"<.	c #A3A396",
"[.	c #B1AC97",
"}.	c #7C9168",
"|.	c #75D06D",
"1.	c #74C748",
"2.	c #C17B7E",
"3.	c #D27D79",
"4.	c #7C654E",
"5.	c #879E4F",
"6.	c #A08263",
"7.	c #AE6D66",
"8.	c #B26B64",
"9.	c #85685C",
"0.	c #B18B82",
"a.	c #AB988E",
"b.	c #B2A394",
"c.	c #8FA166",
"d.	c #84CA50",
"e.	c #9CD561",
"f.	c #75C756",
"g.	c #7FCA4E",
"h.	c #A9766F",
"i.	c #C69E76",
"j.	c #D7B590",
"k.	c #D7B490",
"l.	c #E6BD8E",
"m.	c #A47172",
"n.	c #F1A4AB",
"o.	c #DE8D82",
"p.	c #FCA1A7",
"q.	c #575932",
"r.	c #89C152",
"s.	c #79C34C",
"t.	c #75C04F",
"u.	c #98D257",
"v.	c #79C651",
"w.	c #78C04E",
"x.	c #67B63E",
"y.	c #A97F6E",
"z.	c #C2A37F",
"A.	c #CCAC8A",
"B.	c #967F69",
"C.	c #FFBABD",
"D.	c #584459",
"E.	c #A5554A",
"F.	c #946D72",
"G.	c #70B43B",
"H.	c #78C448",
"I.	c #72C04A",
"J.	c #83CA52",
"K.	c #7CC24E",
"L.	c #71C656",
"M.	c #74BF4C",
"N.	c #8EAB75",
"O.	c #B29B95",
"P.	c #96796B",
"Q.	c #C7AD8F",
"R.	c #B69C7F",
"S.	c #C28A89",
"T.	c #575B6D",
"U.	c #696E84",
"V.	c #535E77",
"W.	c #81A94C",
"X.	c #70BB55",
"Y.	c #7AC549",
"Z.	c #80CB58",
"`.	c #7FBE52",
" +	c #859170",
".+	c #6D6968",
"++	c #4D4848",
"@+	c #C0A98E",
"#+	c #CEB190",
"$+	c #CFB190",
"%+	c #DCC099",
"&+	c #706D6D",
"*+	c #7C7A78",
"=+	c #686870",
"-+	c #6D5F56",
";+	c #A08B56",
">+	c #9F9F5B",
",+	c #9CB25A",
"'+	c #88C571",
")+	c #B07C51",
"!+	c #968072",
"~+	c #565150",
"{+	c #6A6664",
"]+	c #9F9182",
"^+	c #F1C894",
"/+	c #DBB486",
"(+	c #9E9182",
"_+	c #504A4A",
":+	c #6A6665",
"<+	c #746D70",
"[+	c #935A49",
"}+	c #A0624E",
"|+	c #A2624D",
"1+	c #A3634C",
"2+	c #9A5D47",
"3+	c #985A47",
"4+	c #AA7F68",
"5+	c #706F6E",
"6+	c #7C7977",
"7+	c #797474",
"8+	c #434760",
"9+	c #37476C",
"0+	c #6D727E",
"a+	c #575352",
"b+	c #605D5C",
"c+	c #A98373",
"d+	c #A56D53",
"e+	c #AD755A",
"f+	c #A46B54",
"g+	c #A4664E",
"h+	c #905443",
"i+	c #97694C",
"j+	c #85766E",
"k+	c #83817F",
"l+	c #6D6B6A",
"m+	c #885D54",
"n+	c #836059",
"o+	c #727172",
"p+	c #83817E",
"q+	c #817671",
"r+	c #9E6B50",
"s+	c #905B4B",
"t+	c #915F4E",
"u+	c #94604C",
"v+	c #905E47",
"  . + @ # $ % & * = - ; > , '   ",
") ! ~ { ] ^ / ( _ : < [ } | 1 2 ",
"3 4 5 6 7 8 9 0 a b c c d e f g ",
"h i j k l m n o p } c } q r s t ",
"u v w x y z A B C c c D E F G H ",
"I J K L M N O P Q R c S T U V W ",
"X Y Z `  ...+.@.#.$.%.&.*.=.-.;.",
">.,.'.).!.~.{.].^./.(._.:.<.[.}.",
"|.1.2.3.4.5.6.7.8.9.0.a.b.c.d.e.",
"f.g.h.i.j.k.l.m.n.o.p.q.r.s.t.u.",
"v.w.x.y.z.A.B.C.D.E.F.G.H.I.J.K.",
"L.M.N.O.P.Q.R.S.T.U.V.W.X.Y.v.Z.",
"`. +.+++@+#+$+%+&+*+=+-+;+>+,+'+",
")+!+~+{+]+^+/+(+_+:+<+[+}+|+1+2+",
"3+4+5+6+7+8+9+0+a+b+c+d+e+f+g+h+",
"  i+j+k+l+m+n+o+p+q+r+s+t+u+v+  "};
